<svg xmlns="http://www.w3.org/2000/svg" style="display:block" viewBox="0 0 1152 1152"><path d="m0 0 7 1 8 7 11 6 4 5 8 18 7 15 5 15 3 16 2 7 1 7 9 2 4 4 12 28 15 36 14 34 5 14 1 6v13l4 1 2 4v12l-5 10-6 5-4 1v13l-4 12-7 9-9 6-9 3H68l-11-4-5-3v-2l-19 5-49 10h-12l-8 11-8 4-16 4h-18l-10-3v9l-4 23-9 36-7 14-8 11-6 3-28 6-1 1-2 36v13l-1 2 6 2 13 7 4 5 4 11v7l17-2h17l9 6 7 10 4 9 2 9 1 16 6 7 4 18 4 25v25l-4 97-1 9 2 2v2l4 5 5 25v10l-7 49-10 75-4 35 5 2 6 10 4 12v14l-2 6 6 1 21 21 8 7 24 24 3 5v20l-3 3-18 3-38 4h-11l-27-9-30-11-25-9-6-4-2-6 1-20 4-4h2l-5-13-1-6v-11l4-13 7-10 8-9 9-6v-3l3-1-6-5-3-14-9-69-7-61v-24l4-8 11-12 6-4v-2l6-1v-3h2v-4l-5-5-3-8-13-51v-24l-9-38-3-17 1-13-17 2-15 1h-21l-11-6-3-3-1 2-2 25-9 54-2 12-4 11-9 38-4 16-5 7 8 7 4 8 1 9h2l1 9-1 9-2-1-7 34-18 79-9 42 1 2 2 2-1 1 5 3 2 11h1l1 8 3 3v2l3 5v51l3 18v7l-3 11-3 17-3 5-3 2h-80l-5-5-2-12-3-19v-12l4-19 1-11 1-23 2-11 7-7h2v-11l2-9 4-4 6-2v-2h2l-1-4v-25l4-114 2-31 4-23 2-4 8-5 1-2h2l-1-6v-11h1l4-59 2-34 3-20 6-34 5-7 2-1 4-26 4-11 5-3 20 1v-12l7-14 6-4 11-2h5v-12l1-7-1-2v-15l-1-14-1-4-21-10-20-11-9-8-5-10-11-26-8-21-3-5-3-1-17 8-6 2-1 3-8 6-7 11-12 15-14 19-7 9-5 5h-2l1 2v17l-4 9-4 6-7 6-3 1-15 1-4 1h-8l-13-4-8-6-6-6v-2l-4 1h-9l-7-2-8-7-4-10-8-9-12-19-14-22-11-17-12-19-12-18-1-3 2-7-9-15-8-5-4-5-5-16-5-25-2-9-3-5v-6l5-11 3-10 5-5 8-4 9-6 5-1 6 3 3 3v6l-5 8h17l7-1 15 15 2 6-3 7-7 4-5-2-8-4 1 4 8 9 7 5 2 4-1 6-4 4-4 1-1 20 3 9 10 1 8 6 11 12 7 8 9 10 7 8 9 10 11 13 14 17 6 7 2 5v8l5-2 2-3 2-9 8-12 11-14 14-17 10-11 5-6 4-2h3l-2-8v-9l3-13 7-13 8-8 8-5 7-2h9l11 4 10 6 2-6 6-8 12-6 22-8 18-5 25-2-3-3-1-8 3-2-2-3v-10l-1-4 2-3-28-2-10-5-10-9-11-4-7-8-5-12-2-10v-22l4-11 7-9 8-15 12-12 14-9 13-6 12-4h2l-1-8-3-1-4-6v-9l3-5 4-3 9-1 6 4 3 3 1 10v15h10l16 4 9 3 3-13V55l-1-6 3-6 6-5h10l5 3 3 5v8l-3 6-4 6-4 17 1 5 7 6 7 8 6 10 2 4 7 5 5 10 2 7v20l-4 13-7 10-2 11-4 5-11 5-26 6-11 3-1 30-1 2 27 1 25 5 22 5 5 5 3 2 4-1 4-4 14-4 7-1h15l12 6 8 9 3 5 8-1 41-9 24-4 4-6 2-4 2-1-4-7-4-8-6-22-17-69-4-15v-7l5-7-2-5L9 94l-6-8-4 1h-10l-5-3-1-7-1-8-5-5-10-5-2-3-1-7h-5l-1-2-6-3-2-6 4-8 7-10 3-5 8-7 1-1 14-1Zm-306 733Zm188 15Zm55 0Zm-179 25Zm119 175 1 2Zm-143 20Z" style="fill:#e7f1f6" transform="translate(754 32)"/><path d="m0 0 4 1 11 4v2l6 2 8 6 3 5 2 3 2-4 38-1 22-3 3-5h3l1 2 1 13h38l7 5 5 8 5 16v10l-3 4v2l5 3 4 5 4 15 4 25v33l-1 33-1 11-1 43-5 3-1 12h5l5 6 4 15 1 8v15l-2 27-2 9-3 28-4 31-1 2-2 25-3 22-1 13 8 7 3 9v3h2v17l-4 9 7 1 5 4 7 8 30 30 5 5 10 8v14l-4 2-50 6h-12l-12-4-12-5-15-5-8-3-18-7-13-5-4-3v-18l10-9-6-7-3-7v-17l4-9 5-8 6-5 4-4h4v-2l8-2h10l-7-8-9-7-4-9-7-49-4-38-2-13-4-43v-14l5-8 5-4 5-5 9-3 13-1v-14l-6-2-6-4-3-7v-5h-2l-4-16-4-16-4-16v-7l1-3v-9l-3-13-4-15-3-16-2-8-1-13 4-10 8-7-2-4-3-3-3 3-4 8-28 4H33l-7-4-5-6v-2H2v7h7v20l-3 26-5 26-2 17-1 1-1 7-3 9-4 16-4 16-2 12-3 10-6 5 1 7 5 3 2 4 5 5 1 5v17l-3 21-2 10-6 25-2 6-1 9-4 16-3 9-2 14-2 6-1 7-2 12-2 3-4 21-3 9h6v2h3l1 2 1 20 6 1 2 2 1 14-1 18h-3l-3-3v-2h-2l-1-3-3-1h-60l-4 6-3 11h-1v-13l2-26 6-5h2v-10l2-12 1-1h10l1 3h2v-27l2-45 3-47 3-39 1-33 1-18 4-2h10v-5h-4v-9l3-28 4-52 3-22 2-11-1-5 3-15 2-20 3-8h7l-1-4V46l3-14 2-2h24l5-2-1-5h-3v-9l5-8Z" style="fill:#29a2e5" transform="translate(518 531)"/><path d="M0 0h2l5 5 9 6 5 3 2 3 2 9 4 6v4h3l6 18 3 8 1 12 4 10 1 12 4 4 1-2 7 1 7 14 9 24 7 15 5 13 6 13 9 22 4 11 1 1v6l-5 10-1 5h4l1-6 5 5 2 3v9l-5 8-6 3-4-1-4-1 3 7 1 1v12l-4 11-6 7-8 5-3 1H64l-10-6-1-3-28 6-12 3-18 3-12 3-10-1-5-2-1 5-9 10-5 3-15 4-13 1-10-3-8-3-3 22-1 3-1 12-3 11-3 12-4 16-6 12-8 9-12 3-22 5h-4v10l-2 3 2 1v5l-2 3v14l1 5-2 4 1 1v6l-4 1v2l4 2 1 7 9 7 1 5-4 3-11 3-7 1h-21l-9-3-11-4-9-6v-3l5-2 1-2v-11h2v-11l3-1-3-3v-10h2l-3-5v-6l3-4h-3v-13h-11l-16-8-18-10-8-6-8-18-12-30-3-9-4-6-2-5-10 4h-7l-2-1-1 3-10 6-4 1v2l-7 4h-2l-1-14-4-4-13-5-1-1 1-7 1-1h6l12 6 1 1h8l10-9 8-15 5-14 2-3 4 1 4 2v-11l6-9 3-2 6 1 5 5 7 9 4 9 2 8 26 7 30 5 18 2h43l2-1 11-1 13-5 11-3h3v-2l9-4 4-1v-2l3-2v-9l-5-12-3-5 7-1 5-4 15-4h17l10 5 9 11 3 6 1-1h8l9 7 3 5 17-3 24-5 27-6 5-2-4-5-8-5 1-5 7-8 6-1 4 1v-7l4-1v-3H60l-6-3-4-5-4-11-7-28-7-31-6-22-4-15v-9l7-8-6-9-1-4-5-1L6 77l-6-8v-3l-4 4-4 5-4-1-2-1 1-5 1-2h2l1-9 4-6 5-5 3-1h7l5 2-3-10v-3H-8l-5 3-4 5-6 8-7-1 1-4 4-4h2l-1-4 3-3 3-1 3-10 1-1 7 1 3 2h17l1-4-5-2-6-6h-23l-1 4h-6l-2 4-8 11-3 3-5-1 1-4 9-13 3-6h3l2-4h8l11-2 6-3Z" style="fill:#2bb3ed" transform="translate(756 38)"/><path d="m0 0 9 2h7l9-2h11l-1 12h5l5 6 4 15 1 8v15l-2 27-2 9-3 28-4 31-1 2-2 25-3 22-1 13 8 7 3 9v3h2v17l-4 9 7 1 5 4 7 8 30 30 5 5 10 8v14l-4 2-50 6H39l-12-4-12-5-15-5-8-3-18-7-13-5-4-3v-18l10-9-6-7-3-7v-17l4-9 5-8 6-5 4-4h4v-2l8-2h10l-7-8-9-7-4-9-7-49-4-38-2-13-4-43V35l5-8 5-4 5-5 9-3H0Z" style="fill:#2793dc" transform="translate(647 772)"/><path d="M0 0h2l5 5 9 6 5 3 2 3 2 9 4 6v4h3l6 18 3 8 1 12 4 10 1 12 4 4 1-2 7 1 7 14 9 24 7 15 5 13 6 13 9 22 4 11 1 1v6l-5 10-1 5h4l1-6 5 5 2 3v9l-5 8-6 3-4-1-4-1 3 7 1 1v12l-4 11-6 7-8 5-3 1H64l-10-6-1-3-28 6-12 3-18 3-12 3-10-1-5-2-1 5-9 10-5 3-15 4-13 1-10-3-6-3v-15l1-16 5-1-1-7-5-8-4-4 1-4 6-5 15-4h17l10 5 9 11 3 6 1-1h8l9 7 3 5 17-3 24-5 27-6 5-2-4-5-8-5 1-5 7-8 6-1 4 1v-7l4-1v-3H60l-6-3-4-5-4-11-7-28-7-31-6-22-4-15v-9l7-8-6-9-1-4-5-1L6 77l-6-8v-3l-4 4-4 5-4-1-2-1 1-5 1-2h2l1-9 4-6 5-5 3-1h7l5 2-3-10v-3H-8l-5 3-4 5-6 8-7-1 1-4 4-4h2l-1-4 3-3 3-1 3-10 1-1 7 1 3 2h17l1-4-5-2-6-6h-23l-1 4h-6l-2 4-8 11-3 3-5-1 1-4 9-13 3-6h3l2-4h8l11-2 6-3Z" style="fill:#1f91dd" transform="translate(756 38)"/><path d="M0 0h24l7 5 5 8 5 16v10l-3 4v2l5 3 4 5 4 15 4 25v33l-1 33-1 11-1 43-6 3-15 2-4 1h-7l-9-3v15l-3-1h2v-14l-6-2-6-4-3-7v-5h-2l-4-16-4-16-4-16v-7l1-3v-9l-3-13-4-15-3-16-2-8-1-13 4-10 8-7-2-4-3-5 1-5 4-8 2-6 1-15 1-4Z" style="fill:#279fe0" transform="translate(636 556)"/><path d="M0 0h7l10 2 15 1-1 13 8-1 6 4 2 3 1 5v17l-3 21-2 10-6 25-2 6-1 9-4 16-3 9-2 14-2 6-1 7-2 12-2 3-4 21-3 9h6v2h3l1 2 1 20 6 1 2 2 1 14-1 18h-3l-3-3v-2h-2l-1-3-3-1h-60l-4 6-3 11h-1v-13l2-26 6-5h2v-10l2-12 1-1h10l1 3h2v-27l2-45 3-47 3-39 1-33 1-18 4-2H0Z" style="fill:#2496de" transform="translate(459 770)"/><path d="M0 0h5l2 4-5 4-9 6-3 1 2 3v6l-2 3 1 7 5-3h2l1-4 12-8 3-1 2 1h14l11 11v5h-5l-1-4-5-2-1-3-4 1h-9v2h-5l-4 4H4l-1 6-1 2-8 1 7 14 3-6h4L7 40l5 1 3 3 7 2 1 3 9 7 4 3v3l-7 1-10-8h-7v8l16 1v21l-2 5v6h3l2 4v7h8l7 3 8 7v2h2l4 5v2l3 1 8 10 10 11 3 2 3 5 6 7 5 5 7 9 5 5 6 8 5 5 1 2v6l-2 8 6 1 4 1 3-2h8l7 2-2-2v-6l4-5h-4l1-6 1-1 9 1 11 4 5 5 3 8v4l-7 1-4-1v4h-2l6 7 1 3v12l-5 10-5 4-4 2h-14l-3 2h-9l-10-5-8-7-1-2v-14l-7-6 3 6v7l-3 3-3 1H91l-7-5-2-4v-7l-5-2-7-8-12-19-15-24-11-17-12-19-6-10-1-9 2-1v-2l-6-5-6-11v-2l-6-2-5-5-4-9-2-16 4 1 5 3 8 2-4-5-7-3-4-5v-3h-5l-1-1-1-14-5-6 1-4 4-8 4-11 4-3 9-5Z" style="fill:#1d86d4" transform="translate(196 231)"/><path d="M0 0h13l3 7 2 14v17l-4 4-20 4-12 3h-4v10l-2 3 2 1v5l-2 3v14l1 5-2 4 1 1v6l-4 1v2l4 2 1 7 9 7 1 5-4 3-11 3-7 1h-21l-9-3-11-4-9-6v-3l5-2 1-2v-11h2V90l3-1-3-3V76h2l-3-5v-6l3-4h-3V48h-11l2-4 9-11 11-14 11-12 4-3 24-2Z" style="fill:#010205" transform="translate(618 411)"/><path d="m0 0 1 3h-3v19l4 2 35 4 1-22h1v5h7v20l-3 26-5 26-2 17-1 1-1 7-3 9-4 16-4 16-2 12-3 10-6 5 1 7 5 3-1 3H9l1-13H-5l-21-4v-9l3-28 4-52 3-22 2-11-1-5 3-15 2-20 3-8h7Z" style="fill:#2fc4f7" transform="translate(481 597)"/><path d="m0 0 1 2 7 1 5 4 7 8 30 30 5 5 10 8v14l-4 2-50 6H-1l-12-4-12-5-15-5-8-3-18-7-13-5-4-3V30l10-9 5 2 3 2 5-1 4-4 7-13 1-1 33-4 12-1Z" style="fill:#98e8fc" transform="translate(687 1028)"/><path d="M0 0h7l2 3v10l-4 2H0l-4-4V9l-7 3-2 5 5 3 5 8 2 8-2 9-5 5-5 5-8 3h-16l-4-3v-2l-28 6-12 3-18 3-12 3-10-1-5-2-1 5-9 10-5 3-15 4-13 1-10-3-6-3V67l1-16 5-1-1-7-5-8-4-4 1-4 6-5 15-4h17l10 5 9 11 3 6 1-1h8l9 7 3 5 17-3 24-5 27-6 5-2-4-5-8-5 1-5 7-8 6-1 4 1V5l4-2 1-2h17Z" style="fill:#27afe9" transform="translate(850 273)"/><path d="M0 0h60l4 2 1 7v51l-1 4h4l2-8 2-10 2-1v12l-5 22-3 4H-9l-1-2-3-23V43h1l3 21 3-3 3-24L0 3l-2 1Z" style="fill:#9de6fc" transform="translate(417 1031)"/><path d="M0 0h2v2l5 2 6 9 6 16 6 40 2 12 2 8v4h53l24-4 21-5 9-4-2 4-24 8-16 3-9 1-2 10-3 1 4 4-1 4-3 2v3l3 2-1 5-2 1v3l3 3-2 5h-3v6l6-1v10l-1 3 18-1 2-1-1-3-4-2-10-5v-2h25l7 3 6 7-1 7-5 3-19 3H78l-13-3-8-4-1-11-10 3-2 1h-6l-5-5v-2l19-2h6l2 1v-2l-3-1-1-5 4-2v-3l-5-1 1-5 3-2-2-4-1-1v-5l3-1-3-5 1-10H38l-15-1-6-3-7-6-7-6-1-2-8-1-6-7-5-11-1-6V33l7-14 7-9Z" style="fill:#4cbff0" transform="translate(487 140)"/><path d="m0 0 5 2 1 1h25l1 3 4 2 5 9 3 16v13l-3 1-36 4-9 1-7 13-5 5-5 1-8-6-6-6-3-7V35l4-9 5-8 6-5 4-4h4V7l8-2H3Z" style="fill:#010409" transform="translate(643 983)"/><path d="m0 0 6 2 7 7 9 17 3 8v9l-4 8-3 2H-1l-1 20-1 4-19-1-16-2-5-3V57l1-5h3l-2-5V29l3-14 2-2h24l5-2V6Z" style="fill:#061b37" transform="translate(521 548)"/><path d="M0 0h24l7 5 5 8 5 16v10l-3 4 2 4 2 3v8l-4 4-23 4H5L-6 55l1-6h-11l-6-5-2-4 1-5 4-8 2-6 1-15 1-4Z" style="fill:#020b1c" transform="translate(636 556)"/><path d="m0 0 6 1 5 6 4 13 2 10v23l-4 11-5 6H0l-8-7-3-4v-2l-10 4h-7l-2-1-1 3-10 6-4 1v2l-7 4h-2l-1-14-4-4-13-5-1-1 1-7 1-1h6l12 6 1 1h8l10-9 8-15 5-14 2-3 4 1 6 5 1 2 2-3 4 2-3-3-5-2 2-5Z" style="fill:#01040c" transform="translate(469 310)"/><path d="m0 0 9 1 11 4 5 5 3 8v4l-7 1-4-1v4h-2l6 7 1 3v12l-5 10-5 4-4 2H-6l-3 2h-9l-10-5-8-7-1-2V38l-7-6-1 5-5 5h-7l-6-5 1-2 8-1 12-5 10-7 2-3h8l4 1 3-2h8l7 2-2-2v-6l4-5h-4l1-6Z" style="fill:#010612" transform="translate(344 423)"/><path d="m0 0 6 1 10 5 2 3v15L9 39-4 55l-13 17-7 9-2-3-4-9-5-4-13-4-5-1 2-4 4-6 10-13 9-10 9-11 8-9Z" style="fill:#9febfd" transform="translate(397 363)"/><path d="M0 0h7l1 1v6L7 9l-3 1 4 4-1 4-3 2v3l3 2-1 5-2 1v3l3 3-2 5H2v6l6-1v10l-1 3 18-1 2-1-1-3-4-2-10-5v-2h25l7 3 6 7-1 7-5 3-19 3H2l-13-3-8-4-1-11-10 3-2 1h-6l-5-5v-2l19-2h6l2 1v-2l-3-1-1-5 4-2v-3l-5-1 1-5 3-2-2-4-1-1v-5l3-1-3-5 1-8Z" style="fill:#03050a" transform="translate(563 237)"/><path d="m0 0 11 3 19 9 37 13 15 5h14l40-5h12v14l-4 2-50 6H82l-12-4-12-5-15-5-8-3-18-7-13-5-4-3Z" style="fill:#052b71" transform="translate(604 1061)"/><path d="M0 0h4l1 4 5-1 10 1h19l3-1 2 1 1 15v18l2-1 1-5 3-1 2 3v11l-1 4h-62V32h3l3 2 1-19 2-13Z" style="fill:#01040c" transform="translate(427 983)"/><path d="m0 0 5 4 11 7 14 12 17 17 7 8 3 4h9l34-4h13l1 2-45 5-6 1H49l-21-7-34-12-16-8-11-4 1-4 9-8 5 2 3 2 5-1 4-4Z" style="fill:#28abee" transform="translate(637 1036)"/><path d="M0 0h8l11 3 9 7 2 4-4 9-5 12-6 10-7 7-3 2h-8l-5-3-8-4h-7V34l4-15 6-10 7-6Z" style="fill:#36d6fb" transform="translate(420 308)"/><path d="m0 0 9 2h7l9-2h11l-1 16 5 2 6 16 1 9-6 4-11 2H15l-7-6-12-18-6-9 2-1h8Z" style="fill:#000205" transform="translate(647 772)"/><path d="M0 0h7l2 3v10l-4 2H0l-4-4V9l-7 3-2 5 5 3 5 8 2 8-2 9-5 5-5 5-8 3h-16l-4-3v-2l4-1 3-12v-6l-7-6-5-3 1-5 7-8 6-1 4 1V5l4-2 1-2h17Z" style="fill:#020714" transform="translate(850 273)"/><path d="M0 0h2l5 5 9 6 5 3 2 3 2 9 4 6-1 5-4 1v10l-8 7-3 3-8 4-7 5-6 8-4-1-2-1 1-5 1-2h2l1-9 4-6 5-5 3-1h7l5 2-3-10v-3H-8l-5 3-4 5-6 8-7-1 1-4 4-4h2l-1-4 3-3 3-1 3-10 1-1 7 1 3 2h17l1-4-5-2-6-6h-23l-1 4h-6l-2 4-8 11-3 3-5-1 1-4 9-13 3-6h3l2-4h8l11-2 6-3Z" style="fill:#0a1120" transform="translate(756 38)"/><path d="M0 0h7l10 2 15 1-1 13 8-1 1 4-2 7-5 16-3 4H11l-17-3-3-6V13h8Z" style="fill:#000306" transform="translate(459 770)"/><path d="M0 0h5l2 4-5 4-9 6-3 1 2 3v6l-2 3 1 7 5-3h2l1-4 12-8 3-1 2 1h14l11 11v5h-5l-1-4-5-2-1-3-4 1h-9v2h-5l-4 4H4l-1 6-1 2-8 1 7 14 3-6h4L7 40l5 1 3 3 7 2 1 3 9 7 4 3v3l-7 1-10-8h-7v8h5l3 2-1 7h-8L1 67l-2-2-7-3-4-5v-3h-5l-1-1-1-14-5-6 1-4 4-8 4-11 4-3 9-5Z" style="fill:#080f22" transform="translate(196 231)"/><path d="M0 0h1l3 21h77l2-8 2-10 2-1v12l-5 22-3 4H4l-1-2-3-23Z" style="fill:#08090c" transform="translate(404 1074)"/><path d="M0 0h1L0 11l-3 6-13 3-19 4-12 3-18 3-12 3-10-1-3-2-1-18-1-8h7l9 7 3 5 17-3 24-5 27-6Z" style="fill:#2d94d5" transform="translate(816 308)"/><path d="m0 0 4 1 6 18 3 8v12l-3 6-12 9-5 2-4-1-11-13-6-8-1-4 9-6 7-2 2-4 6-5 1-10 3-1Z" style="fill:#23a4eb" transform="translate(784 73)"/><path d="m0 0 1 2 5 2 8 7-1 2-5 2-31 7-26 5-11 2-6-8-6-4-7-1v-1l18-3 23-5 6-2 17-3 12-1 3 1Z" style="fill:#9ce9fc" transform="translate(803 296)"/><path d="M0 0h7l5 3 7 8 6 14 2 8v12l-5 9-5 4-2 1H5l-4-2V42l1-16 5-1-1-7-5-8-4-4 1-4Z" style="fill:#000409" transform="translate(664 298)"/><path d="m0 0 4 1 5 3 8 2 1-2 7 3 8 1 1-7-2-1h10v21l-3 10-8 4-8 1h-4l-2-4-6-2-5-5-4-9Z" style="fill:#1e8ad4" transform="translate(182 295)"/><path d="M0 0h1v5h7v20L5 51 0 77l-2 17-1 1-1 7-3 9-4 16-4 16-2 12-3 10-6 5 1 7 5 3-1 3h-8l1-14 3-9 8-41 6-26 4-14 6-28 6-29h-6Z" style="fill:#278bd0" transform="translate(519 603)"/><path d="M0 0h12v14l-4 2-50 6h-6V12l1-5 13-3Z" style="fill:#02040a" transform="translate(740 1086)"/><path d="m0 0 10 6 11 2h19l9-2 5-3 5 4 5 4 1 5-4 3-11 3-7 1H22l-9-3-11-4-9-6V7l5-2Z" style="fill:#01070f" transform="translate(540 520)"/><path d="m0 0 4 1 5 6 4 9 3 16v20l-1 4H7l-6-7-5-11-1-6V11Z" style="fill:#030611" transform="translate(474 162)"/><path d="M0 0h1L0 12l-5 19-3 9-2 10-9 6-6 2v2l-7 4h-2l-1-14-4-4-13-5-1-1 1-7 1-1h6l12 6 1 1h8l10-9 8-15 5-14Z" style="fill:#1671c0" transform="translate(449 322)"/><path d="m0 0 6 1 10 5 2 3v15L9 39-4 55l-13 17-7 9-2-3-2-6h2l2-5 14-21L3 28l8-11v-5l-5-2-5-2-7-1V4Z" style="fill:#38a1df" transform="translate(397 363)"/><path d="m0 0 9 1 11 4 5 5 3 8v4l-7 1-4-1v4h-2l6 7 1 3v12l-5 10-5 4-4 2H-3l-2-1 1-3 11-1 5-5 4-9v-8l-2-5h-3l-5-5-4-4-2-2-2-3v-6l4-5h-4l1-6Z" style="fill:#030b15" transform="translate(344 423)"/><path d="M0 0h3l3 9 3 4-1 5-4 1v10l-8 7-3 3-8 4-7 5-6 8-4-1-2-1 1-5 1-2h2l1-9 4-6 5-5 3-1h7l5 2-2-6v-6h2v-6l6-1Z" style="fill:#030a1e" transform="translate(776 57)"/><path d="M0 0h2l4 10 1 12 4 4 2 1v-2h2l-2 4-7 8-6 3h-10l-3-3v-5l2-3-5-6-3-7 8-4 9-7Z" style="fill:#020815" transform="translate(796 112)"/><path d="M0 0h8l3 1 1 2 1 20 6 1 2 2 1 14-1 18h-3l-3-3v-2h-2l-1-3-3-2h2V33l-4-2v5l-3 1-1-18V4l-5 1h-19V4h18V2Z" style="fill:#1c6bb3" transform="translate(468 983)"/><path d="M0 0h9l6 5 2 4v9l-4 6-6 4h-9l-5-5-2-4v-9l4-6Z" style="fill:#000810" transform="translate(590 155)"/><path d="M0 0h4l3 3 1 2v7l5 2 1 6-4 6-6 4h-7l-4-2-1-9-6-5-4-8 1-3 6 1 10-3Z" style="fill:#01050e" transform="translate(219 326)"/><path d="M0 0h9l7 4 2 5v10l-8 7H1l-6-5-2-3V7l5-6Z" style="fill:#000710" transform="translate(535 164)"/><path d="m0 0 5 2 7 10 3 6 1 10-3 1-2-1-2 4-3 1-4-10-5-5-2-2-4-1h-11l1-3 6-5 4-4h4V1Z" style="fill:#1e69c0" transform="translate(633 989)"/><path d="m0 0 4 1h14l11 11v5h-5l-1-4-5-2-1-3-4 1H4v2h-5l-4 4h-3l-1 6-1 2-10 2-3-1-2-7h3l1-3v2l5-3h2l1-4 12-8Z" style="fill:#0c1326" transform="translate(208 249)"/><path d="M0 0h4l4 5 4 1v3H8l3 7 1 1v12L8 40l-6 7-8 5-3 1h-13l-5-3v-1l14-1 9-4h2l2-5 4-4 2-10-4-10-2-4-4-1-2-4 4-5Z" style="fill:#2684cb" transform="translate(842 282)"/><path d="m0 0 11 3 16 8 1 1v13l-8-1-14-5-6-4Z" style="fill:#04070d" transform="translate(604 1061)"/><path d="M0 0h2l1 7-1 5-8 1h-14l-1 4h-6l-2 4-8 11-3 3-5-1 1-4 9-13 3-6h3l2-4h8l11-2 6-3Z" style="fill:#0d1422" transform="translate(756 38)"/><path d="M0 0h8L5 1 3 16 2 35l-2 1v-2l-4-1-1 17-4 6-3 11h-1V54l2-26 6-5h2V13l2-12Z" style="fill:#339bd6" transform="translate(422 982)"/><path d="M0 0h26l8 3 6 7 1 2v6l-6 5-21 3H-9l-17-3-19-9-5-4 11-3 1-1h5l2 11 9 4 11 2h23l19-3 4-2 1-7-6-7-6-2L0 1Z" style="fill:#64b3dc" transform="translate(576 282)"/><path d="M0 0h6l12 6 7 6 1 2v8l-3 6-4 4h-2l-1-14-4-4-13-5-1-1 1-7Z" style="fill:#010711" transform="translate(398 354)"/><path d="M0 0h9l6 3 6 8v12l-5 8-5 3H0l-6-4-5-8-1-9 3-6 7-6Zm-1 3-6 5-1 2v11l6 7 2 1h9l8-7V12l-2-5-7-4Z" style="fill:#4eb8e8" transform="translate(536 161)"/><path d="M0 0h7l5 4 5 7v9l-4 6-2 1H3l-1-1L1 8Z" style="fill:#020811" transform="translate(724 312)"/><path d="M0 0v3l-9 4-16 5-16 3-9 1-2 2-14 1h-12v-2h-19l-15-1-2-2 3-1h58l24-4 21-5Z" style="fill:#3599d6" transform="translate(622 220)"/><path d="m0 0 2 1v2l5 2 5 13 1 5v14l-3 10-4 6H3l1-11V21L1 6Z" style="fill:#2a90d3" transform="translate(623 152)"/><path d="M0 0h9l8 6 4 6v8l-4 10-8 5H-3l-8-7-1-4V13l5-8 5-4Zm-1 3-7 6-2 4v9l4 7 3 2h9l6-4 4-6v-9l-4-6-4-3Z" style="fill:#41a7e2" transform="translate(591 152)"/><path d="M0 0h6l2 2v6l-2 3 2 2 3 17 12 1-3 2-13 2H-3l-1-3 1-1h7L2 21v-8l-4-1-2-3V3l1-2Z" style="fill:#090f1a" transform="translate(537 80)"/><path d="M0 0h5l5 3 5 3v7l-3 1v2l-6 2-14 2h-26l-13-5-2-3 9 3 5 1h21l15-3 6-3-1-5-6-4Z" style="fill:#2f96d0" transform="translate(597 526)"/><path d="m0 0 9 6 3 7 8 7 5 2v2l4 2-2 1h-9L8 22l-8-7-1-2Z" style="fill:#2276ba" transform="translate(308 462)"/><path d="m0 0 1 3 5 1 5 5 3 9v3h2v17l-3 6-2 1-2-20-3-10-4-7-4-2V3h-5V2Z" style="fill:#267ac2" transform="translate(676 983)"/><path d="m0 0 4 1 4 5-4 2 2 2-9 2v10l-4 1-2 6-3-3-5-10v-2l8-1 2-8 5-3Z" style="fill:#e6f5fa" transform="translate(207 259)"/><path d="m0 0 5 1 5 6v11l-3 3H1l-4-3-1-3V4Z" style="fill:#050d19" transform="translate(618 801)"/><path d="m0 0 6 4 2 5v12L3 31l-5 4-4 2h-11l-2-1 1-3 11-1 5-5 4-9v-8Z" style="fill:#1d65a4" transform="translate(358 450)"/><path d="m0 0 1 4-2 1h-75l-1-3H0Z" style="fill:#1b5d94" transform="translate(485 1093)"/><path d="m0 0 6 2 3 5 8 5-1 4-3 6v7l-5-5-4-4-2-2-2-3V9l4-5H0Z" style="fill:#0d4279" transform="translate(342 426)"/><path d="m0 0 5 5 2 3v9l-5 8-6 3-4-1 1-5 3-1V6h3Z" style="fill:#249bdc" transform="translate(862 265)"/><path d="M0 0h8l7 5 5 8 1 9v9h-4l-4-14L6 5 3 2Z" style="fill:#295185" transform="translate(652 556)"/><path d="m0 0 1 2h2v2h7v2l9 3 5 4 2 4-3 1H5L6 5 0 6Z" style="fill:#238ee5" transform="translate(565 279)"/><path d="m0 0 2 3 1 5 2-4 1 7v21L5 44H3L2 59h-3l2-33V12Z" style="fill:#88dcf7" transform="translate(622 162)"/><path d="m0 0 7 6 1 1h7l4-4 3-3 2 4v7l-3 3-3 1H8l-7-5-1-2Z" style="fill:#2e72af" transform="translate(279 457)"/><path d="m0 0 3 1 3 14 1 13-4 5-3-4-2-8V10Z" style="fill:#020d64" transform="translate(474 173)"/><path d="M0 0h1v61l-2 34v11l-1 13-6 2-1-2 5-2 1-43 1-11Z" style="fill:#8acff2" transform="translate(691 652)"/><path d="m0 0 5 1 3 6v8l-3 4H0l-4-6V4Z" style="fill:#05317f" transform="translate(619 1019)"/><path d="m0 0 2 4 1 1 1 8 3 1 25 1v4H6l-5-1v19H0Z" style="fill:#09336f" transform="translate(430 983)"/><path d="M0 0h2l3 6v5l-7 6-5-1-4-6 4-5Z" style="fill:#00050f" transform="translate(794 117)"/><path d="M0 0h5l2 4-5 4-9 6-5 1v-2l-4-1 5-5 9-5Z" style="fill:#0a1027" transform="translate(196 231)"/><path d="M0 0h6l1 5 6 7 3 6v5l-1 1h-5v16H9L8 17 3 5Z" style="fill:#135492" transform="translate(656 300)"/><path d="M0 0h26l8 3 6 7 1 2v6l-6 5-13 2 4-4 9-3 1-7-6-7-6-2L0 1Z" style="fill:#6fadd5" transform="translate(576 282)"/><path d="M0 0h1v5h7v12l-2 6-7-1Z" style="fill:#2367c0" transform="translate(519 603)"/><path d="M0 0h13l3 7 2 14v17l-2 3h-2L13 8l-1-7H0Z" style="fill:#0a4a89" transform="translate(618 411)"/><path d="M0 0h13l1 2-45 5-11 1V5Z" style="fill:#2d8fcd" transform="translate(737 1084)"/><path d="m0 0 2 1-5 5-2-1-1 5-5 5h-7l-6-5 1-2 8-1 12-5Z" style="fill:#01081d" transform="translate(305 450)"/><path d="M0 0h6l2 2v6l-2 3 1 2-5 1-4-2-2-3V3l1-2Z" style="fill:#2697d0" transform="translate(537 80)"/><path d="M0 0h5L4 10 1 25l-5-2 1-9Z" style="fill:#111d3a" transform="translate(597 93)"/><path d="M0 0h6l4 3-1 7-3 2h-7l-1-2V2Z" style="fill:#1a93d8" transform="translate(599 77)"/><path d="M0 0h9v1L0 3l-6 5-1 2v11l4 6-2 1 6 4 5 1v1H0l-6-4-5-8-1-9 3-6 7-6Z" style="fill:#55bbde" transform="translate(536 161)"/><path d="M0 0h7l9 8v2H5L0 9l-1-8Z" style="fill:#e1f2f9" transform="translate(208 285)"/><path d="m0 0 2 1 4 6 3 2v8H3l-2-4-5-8-1-3Z" style="fill:#04112b" transform="translate(782 126)"/><path d="m0 0 5 4 1 3-8 7-2 4 5 1 4 3-1 2-4-2-2 3-4-6 1-11Z" style="fill:#2096da" transform="translate(463 304)"/><path d="M0 0h3L2 4l-5 3-5 1h-17l-3-2V4l20-1 7-2Z" style="fill:#121416" transform="translate(584 213)"/><path d="M0 0h5l5 6 4 15v9h-1v-8h-3L5 10V6L0 4Z" style="fill:#67bde9" transform="translate(682 784)"/><path d="M0 0h5l1 4v7L-5 9l-7-4V4l11-3Z" style="fill:#0b5eb4" transform="translate(538 288)"/><path d="m0 0 4 1 6 12 2 5-5-2-3-3-1 2L1 4l-3 2-1 3 2 6h-3L-7 3l7-2Z" style="fill:#0e417e" transform="translate(514 558)"/><path d="m0 0 7 1 6 5-4 1-6 5-2 3v-3h-3V3Z" style="fill:#1b70b1" transform="translate(512 542)"/><path d="M0 0v3l-9 4-16 5-18 3-2-3 25-5 14-4Z" style="fill:#5aabd5" transform="translate(622 220)"/><path d="m0 0 10 6 11 2h19l9-2 5-3 2 3-10 4H13L2 6l-3-3Z" style="fill:#1f4e81" transform="translate(540 520)"/><path d="m0 0 1 3-3 7v2l5 1 1 2-6 8-4-1-2-1 1-5 1-2h2l1-9Z" style="fill:#1a2438" transform="translate(750 90)"/><path d="m0 0 3 4 5 5 5 2 3 3v2l-8-1-6-4-4-1V1Z" style="fill:#62d6f1" transform="translate(183 285)"/><path d="M0 0h5l1 1v7l-4 4-5-1V4Z" style="fill:#02081b" transform="translate(409 326)"/><path d="m0 0 6 1 3 5 10 2 1 2H10L-1 7l-1 3V5h2Z" style="fill:#1b5b9f" transform="translate(541 507)"/><path d="m0 0 3 1-1 2 10 6-2 2-1 2-12-1-1 3-4-3 7-2V7l3-1-3-4Z" style="fill:#9eb6cb" transform="translate(212 258)"/><path d="M0 0h2L1 10l-2 8 1 6-2 10-2 15h-1V38l2-22Z" style="fill:#a2ecf9" transform="translate(468 624)"/><path d="m0 0 3 1 2 7 1 19-2 1-3-17Z" style="fill:#2855c4" transform="translate(474 173)"/><path d="M0 0h3L2 2 0 3l2 1-1 10-3 1-1 2-1 17h-1V16l3-14Z" style="fill:#31567c" transform="translate(485 561)"/><path d="M0 0h9v1L1 3l-6 4-4 6v16l-2-1-1-4V13l5-8 5-4Z" style="fill:#61c3df" transform="translate(591 152)"/><path d="M0 0h2l4 10 1 14-4-1V13l-4-8Z" style="fill:#183f7d" transform="translate(796 112)"/><path d="M0 0h1l1 5 12 1-3 2-13 2h-10l-1-3 1-1h6l4 2V6h2Z" style="fill:#356598" transform="translate(546 105)"/><path d="M0 0h4v2l4 2 15 3v2H9L1 5l2-1Z" style="fill:#133873" transform="translate(541 496)"/><path d="m0 0 4 1v2l3 1 4 9-1 3-6-5-4-8Z" style="fill:#133257" transform="translate(201 329)"/><path d="m0 0 4 2 2 5H3l1 9-5 2Z" style="fill:#0d427e" transform="translate(773 50)"/><path d="m0 0 5 2 4 3v10l-4 1L3 6 0 2Z" style="fill:#0e4697" transform="translate(816 299)"/><path d="m0 0 1 4-1 3v34h-1l-2-26V5Z" style="fill:#7abbe9" transform="translate(612 802)"/><path d="M0 0h1v7l5 2 2 7-6-1-1 4H0Z" style="fill:#0d3a71" transform="translate(681 781)"/><path d="M0 0h5l5 3 5 3v7l-2 1V7h-2l-2 5-4 1 2-3-1-5-6-4Z" style="fill:#73ccef" transform="translate(597 526)"/><path d="m0 0 4 1-2 2-8 1h-19V2Z" style="fill:#408fbf" transform="translate(596 304)"/><path d="M0 0h12L9 2H2v2h2L3 6-7 7l-1-5Z" style="fill:#0e3f6e" transform="translate(636 556)"/><path d="M0 0h1l1 7 3 1h7l5-3 2 1-6 4-9 1-3-1-1 2-2-5V1Z" style="fill:#398dd0" transform="translate(211 347)"/><path d="m0 0 4 2 3 11v9l-2-1-2-7H2Z" style="fill:#b7edf9" transform="translate(619 149)"/><path d="m0 0 4 3v18H2L-1 4Z" style="fill:#17407f" transform="translate(462 325)"/><path d="M0 0h2l5 8 2 8-2 9-3 2 1-5V12L0 2Z" style="fill:#083e7e" transform="translate(840 293)"/><path d="m0 0 2 3-2 4h-9l-6 3 2-4 5-4 8 1Z" style="fill:#1b519c" transform="translate(822 282)"/><path d="m0 0 4 2 3 2v8H1L0 8l1-5Z" style="fill:#154d86" transform="translate(784 131)"/><path d="M0 0h7L4 3l-14 2h-5V2Z" style="fill:#399add" transform="translate(710 1087)"/><path d="m0 0 2 1-1 5 2 4 4 2-1 3h-8l1-14Z" style="fill:#5b86a9" transform="translate(492 771)"/><path d="m0 0 11 2-1 4-1 1-9-1Z" style="fill:#a9def7" transform="translate(616 820)"/><path d="M0 0h39v1L1 2l-2 4-3-5Z" style="fill:#b5ecfd" transform="translate(553 549)"/><path d="m0 0 3 1 2 3v6l-5 5-3-1 3-4Z" style="fill:#06144f" transform="translate(334 459)"/><path d="M0 0h1l2 18-1 9-3 1Z" style="fill:#0a5da2" transform="translate(628 171)"/><path d="m0 0 2 4 3 3 7 1v1H1l-4-2v7h-1V5Z" style="fill:#55bbf2" transform="translate(782 145)"/><path d="M0 0h6v1H1L0 3l-10 2-2 4-7 6v-3l5-4 5-5Z" style="fill:#86c2e2" transform="translate(633 787)"/><path d="M0 0h1l1 13-4 5-2-2 1-15h1l1 9 1 2Z" style="fill:#03248e" transform="translate(479 188)"/><path d="m0 0 4 2-1 7H1L0 20h-1V3Z" style="fill:#000517" transform="translate(482 575)"/><path d="M0 0h1l1 8-1 2 5 1 4 3-1 2-4-2-2 3-4-6Z" style="fill:#5fa0d4" transform="translate(458 312)"/><path d="M0 0h9v1L0 3l-6 5-4 6-2 1 2-7 8-7Z" style="fill:#61bce1" transform="translate(536 161)"/><path d="m0 0 1 3-3 7v2l5 1 1 2-2 2-8-2 2-1 1-9Z" style="fill:#5e6e8a" transform="translate(750 90)"/><path d="m0 0 10 6 9 2v1h-9L0 5l-1-2Z" style="fill:#31639b" transform="translate(540 520)"/><path d="M0 0h5L4 4 1 9l-4-2V4Z" style="fill:#1da4e6" transform="translate(354 438)"/><path d="m0 0 2 2 1 13 1 8-2 5H1Z" style="fill:#83bee4" transform="translate(484 1043)"/><path d="m0 0 4 2 4 4v8l-2-4-3 2-2-8Z" style="fill:#b4d8ee" transform="translate(300 455)"/><path d="M0 0h5l1 4-3 3-5-1 1-5Z" style="fill:#2f76bd" transform="translate(589 165)"/><path d="M0 0h7L6 2l-16 3-2-3Z" style="fill:#4ba0d0" transform="translate(589 230)"/><path d="m0 0 2 4v3H0l-2 4-5 4-3-1 7-7h2Z" style="fill:#4a6783" transform="translate(744 80)"/><path d="m0 0 5 1 3 4v3L2 7 0 5h2Z" style="fill:#3176b2" transform="translate(541 482)"/><path d="M0 0h1l3 21H1l-1-6Z" style="fill:#333945" transform="translate(404 1074)"/><path d="M0 0h8l3 2-8 2-6 1V2Z" style="fill:#2d7ec5" transform="translate(329 441)"/><path d="m0 0 2 1-1 2 2 1-10 6-2 1 1-4Z" style="fill:#a2acb5" transform="translate(203 240)"/><path d="m0 0 4 1-1 5-4 2h-3V3l3-1Z" style="fill:#5cbdee" transform="translate(784 73)"/><path d="m0 0 3 1-3 3-1 3 2 6h-3L-5 1Z" style="fill:#4d89bc" transform="translate(512 560)"/><path d="m0 0 15 5v1H7l-9-2 2-1Z" style="fill:#122f66" transform="translate(549 487)"/><path d="m0 0 9 1v1L0 3l-6 5 1-4Zm-7 8 1 2-2 2Zm-2 4v3Z" style="fill:#3178b4" transform="translate(618 604)"/><path d="m0 0 5 2 3 3-2 1-1 2-6-1Z" style="fill:#92a8bc" transform="translate(216 263)"/><path d="m0 0 1 2 9-1-4 7-1-2H0Z" style="fill:#93d5eb" transform="translate(597 87)"/><path d="M0 0h8l1 2-8-1v2l-8 5-2 2 1-5Z" style="fill:#011a5c" transform="translate(813 288)"/><path d="M0 0h9l1 9-5-5V1H0Z" style="fill:#072d61" transform="translate(179 284)"/><path d="m0 0 15 1v1L3 3v2l-4 1-3-3 3-1Z" style="fill:#063365" transform="translate(827 274)"/><path d="M0 0h3v2h6v1L0 5h-6V3l5-2Z" style="fill:#a6bcd5" transform="translate(756 80)"/><path d="m0 0 8 4v2L-2 7Z" style="fill:#0f2f59" transform="translate(741 61)"/><path d="m0 0 4 2 2 5H2l-1 4-1-8Z" style="fill:#205c94" transform="translate(773 50)"/><path d="M0 0h1v12h-2l-2 4-1-3 2-5 1-7Z" style="fill:#326287" transform="translate(490 1076)"/><path d="m0 0 1 4 6-2-1 4-4 4H0Z" style="fill:#0d345b" transform="translate(415 376)"/><path d="m0 0 2 2 1 11H1l-3-9h2Z" style="fill:#070822" transform="translate(472 194)"/><path d="m0 0 2 3-2 10h-2V5l-2 1 2-4Z" style="fill:#a0b5d0" transform="translate(743 74)"/><path d="m0 0 2 4 1 1v7l-3 4Z" style="fill:#164e94" transform="translate(430 983)"/><path d="m0 0 10 2h1l2 1-2 3-5-1V3L1 2Z" style="fill:#08294e" transform="translate(327 481)"/><path d="m0 0 3 3 1 2v7l-3-2-2-8Z" style="fill:#223248" transform="translate(223 326)"/><path d="m0 0 1 2h2v2h7v2H7v7H6V5L0 6Z" style="fill:#1e4d76" transform="translate(565 279)"/><path d="M0 0h2l1 9-1 9H1Z" style="fill:#fff" transform="translate(512 799)"/><path d="M0 0h4v2l4 2 2 3-6-1-3-2h2Z" style="fill:#246eb2" transform="translate(541 496)"/><path d="M0 0h1L0 10l-4 1 3-10Z" style="fill:#2697dc" transform="translate(449 322)"/><path d="M0 0h7v3H-7V2l7-1Z" style="fill:#0a2b60" transform="translate(560 515)"/><path d="M0 0h9l2 2-2 2-11-2Z" style="fill:#3896c8" transform="translate(538 162)"/><path d="m0 0 2 3 6 10-1 2-3-3-4-7Z" style="fill:#3e77aa" transform="translate(518 561)"/><path d="m0 0 6 1-1 3h-7Z" style="fill:#3469ab" transform="translate(332 450)"/><path d="m0 0 6 5 7 1v1H4L3 9 0 3Z" style="fill:#4268a6" transform="translate(463 374)"/><path d="m0 0 6 2 1 3-8-1Z" style="fill:#84e3f8" transform="translate(192 296)"/><path d="m0 0 4 1-1 5-4-1Z" style="fill:#4077b5" transform="translate(536 173)"/><path d="m0 0 4 3v5L2 7 0 9l-1-5Z" style="fill:#0d408a" transform="translate(462 325)"/><path d="M0 0h2L1 12h-3Z" style="fill:#95d2ee" transform="translate(623 209)"/><path d="M0 0h1l1 11-4-1 1-8Z" style="fill:#0b2e67" transform="translate(801 125)"/><path d="m0 0 2 1 1 9-4-1Z" style="fill:#013072" transform="translate(476 1005)"/><path d="m0 0 3 3-8 3h-5l3-2Z" style="fill:#387bb2" transform="translate(593 523)"/><path d="m0 0 2 3 1 6-7 1 4-1Z" style="fill:#1c405b" transform="translate(369 436)"/><path d="m0 0 4 2 5 6H6L5 5 1 3Z" style="fill:#3d93d5" transform="translate(632 614)"/><path d="M0 0h9v1L1 2l-2 4-3-5Z" style="fill:#7ad8f6" transform="translate(553 549)"/><path d="m0 0 4 4H2L1 7h-5l3-1Z" style="fill:#8bc0e4" transform="translate(862 265)"/><path d="M0 0h9v1L1 3l-6 1 3-3Z" style="fill:#67c1eb" transform="translate(591 152)"/><path d="M0 0h5L0 5h-4l-1 2V4h3Z" style="fill:#285f83" transform="translate(729 45)"/><path d="M0 0h7L4 3h-8Z" style="fill:#3698da" transform="translate(710 1087)"/><path d="m0 0 7 1 4 5-4-1-7-4Z" style="fill:#011235" transform="translate(648 556)"/><path d="M0 0h1v8l-5 3-2 3 1-6 5-1Z" style="fill:#466d85" transform="translate(204 274)"/><path d="m0 0 6 4v2L0 5l-1-2Z" style="fill:#599dd2" transform="translate(540 520)"/><path d="M0 0h9L4 5 0 2Z" style="fill:#042458" transform="translate(281 458)"/><path d="m0 0 10 2 2 2-4 1-8-4Z" style="fill:#46a2d7" transform="translate(535 297)"/><path d="m0 0 5 1v3L2 7Z" style="fill:#123561" transform="translate(203 271)"/><path d="m0 0 7 1-2 1v2L0 7l2-4 1-2H1L0 3Z" style="fill:#6eb6da" transform="translate(808 136)"/><path d="M0 0h10L7 2l-8 1Z" style="fill:#388dc2" transform="translate(550 111)"/><path d="M0 0h12v1L3 2l-5 2Z" style="fill:#b2ebfc" transform="translate(417 1031)"/><path d="m0 0 8 1 1 2H-1Z" style="fill:#1d4b8b" transform="translate(552 514)"/><path d="m0 0 2 4v3h5L3 9H0Z" style="fill:#2e5a7a" transform="translate(206 287)"/><path d="m0 0 1 4-5 5 2-7Z" style="fill:#69cbef" transform="translate(528 167)"/><path d="M0 0h3L1 4l-5 1 1-3Z" style="fill:#89a0b4" transform="translate(751 53)"/><path d="M0 0h1v19H0Z" style="fill:#fff" transform="translate(427 860)"/><path d="m0 0 3 3-2 7H0Z" style="fill:#6bddf6" transform="translate(465 645)"/><path d="M0 0h2l4 6v2L3 7 0 2Z" style="fill:#043171" transform="translate(840 293)"/><path d="m0 0 2 4v3H0l-1 2-2-2h2Z" style="fill:#58799f" transform="translate(744 80)"/><path d="M0 0h1v18H0Z" style="fill:#fff" transform="translate(428 835)"/><path d="m0 0 2 1-5 5-5-1 3-2Z" style="fill:#072353" transform="translate(305 450)"/><path d="M0 0h3l2 5-2 2Z" style="fill:#4e7ebe" transform="translate(183 267)"/><path d="m0 0 2 1-2 4-5 1 3-5Z" style="fill:#2c5073" transform="translate(185 238)"/><path d="m0 0 1 4-1 5-1-2h-2l2-6Z" style="fill:#162538" transform="translate(489 1087)"/><path d="m0 0 2 1-4 8-1-3 2-5Zm-4 9Z" style="fill:#45a3d4" transform="translate(615 800)"/><path d="m0 0 2 1-3 3-9-1V2Z" style="fill:#2a5e90" transform="translate(681 355)"/><path d="m0 0 4 1-3 2v1h-6l3-3Z" style="fill:#3296c9" transform="translate(670 294)"/><path d="m0 0 2 1-6 7-1-3Z" style="fill:#6a7a86" transform="translate(199 243)"/><path d="m0 0 3 1-5 6-2-2Z" style="fill:#51a5c7" transform="translate(585 156)"/><path d="m0 0 1 4-1 3h-3l2-6Z" style="fill:#8bc4e7" transform="translate(612 802)"/><path d="m0 0 2 3-5 4V2Z" style="fill:#5b8cb3" transform="translate(611 594)"/><path d="m0 0 8 5-4 1-4-4Z" style="fill:#88b2cb" transform="translate(531 528)"/><path d="m0 0 4 2v6L1 6Z" style="fill:#c1e7f2" transform="translate(619 149)"/><path d="m0 0 5 2-2 3-5-1 2-1Z" style="fill:#051c4b" transform="translate(549 487)"/><path d="m0 0 4 2-2 2-1 2-3-1Z" style="fill:#a3b3c5" transform="translate(220 265)"/><path d="M0 0h1v7l-4-1Z" style="fill:#315387" transform="translate(177 252)"/><path d="M0 0v3l-5 2-1-2Z" style="fill:#6ab0d5" transform="translate(622 220)"/><path d="m0 0 2 4 2 3-5-1Z" style="fill:#3a97c7" transform="translate(782 145)"/><path d="m0 0 3 1v2l3 1H3L2 6Z" style="fill:#3782c0" transform="translate(430 982)"/><path d="M0 0h1v14H0Z" style="fill:#fff" transform="translate(426 891)"/><path d="m0 0 3 1 1 5-4-2Z" style="fill:#2188cf" transform="translate(682 784)"/><path d="m0 0 2 1-1 3-5 3 2-4Z" style="fill:#b4c8dd" transform="translate(616 602)"/><path d="m0 0 3 1v3l-5-1Z" style="fill:#1b6bb7" transform="translate(327 442)"/><path d="M0 0h7v2L3 3Z" style="fill:#2c517d" transform="translate(823 277)"/><path d="M0 0h1v8h-2l-1-4h2Z" style="fill:#151525" transform="translate(472 194)"/><path d="m0 0 5 4v2L0 4Z" style="fill:#5c7da1" transform="translate(593 112)"/><path d="m0 0 1 2-2 5-2-4Zm-4 5Z" style="fill:#7e8a93" transform="translate(733 59)"/><path d="M0 0h2l1 5-5-2Z" style="fill:#20415d" transform="translate(756 38)"/><path d="M0 0h1v13H0Z" style="fill:#fff" transform="translate(452 673)"/><path d="m0 0 5 2v1l-7-1Z" style="fill:#3780bc" transform="translate(546 525)"/><path d="m0 0 4 5h-6l2-1Z" style="fill:#4291d1" transform="translate(541 508)"/><path d="m0 0 1 2h2L2 6H0Z" style="fill:#8292a0" transform="translate(565 279)"/><path d="m0 0 5 1v4H3Z" style="fill:#245aa6" transform="translate(175 267)"/><path d="m0 0 5 3v1h-6Z" style="fill:#387fb1" transform="translate(741 61)"/><path d="M0 0h3v4H0Z" style="fill:#6b242e" transform="translate(619 811)"/><path d="m0 0 5 2-1 3-4-3Z" style="fill:#8ea2bf" transform="translate(494 781)"/><path d="m0 0 1 3-1 1h-6l4-2Z" style="fill:#5d8bb7" transform="translate(605 605)"/><path d="m0 0 2 4-2 2-2-5Z" style="fill:#235d95" transform="translate(511 568)"/><path d="m0 0 4 2-6 3Z" style="fill:#041a3c" transform="translate(543 475)"/><path d="m0 0 4 1-2 2-4-1Z" style="fill:#5099c8" transform="translate(596 304)"/><path d="m0 0 4 2v3H2Z" style="fill:#2361b2" transform="translate(816 299)"/><path d="m0 0 2 3-2 4-2-2Z" style="fill:#0e3985" transform="translate(822 282)"/><path d="M0 0h1v5l-3 2 1-5Z" style="fill:#030b4c" transform="translate(474 179)"/><path d="m0 0 5 1-3 3Z" style="fill:#0a3471" transform="translate(638 1018)"/><path d="m0 0 3 1-2 3-3-1 2-1Z" style="fill:#147dc2" transform="translate(354 443)"/><path d="m0 0 3 2-1 2-4-2Z" style="fill:#4483c3" transform="translate(465 324)"/><path d="M0 0h2L0 4l-2 2 1-5Z" style="fill:#19263f" transform="translate(806 292)"/><path d="M0 0h5L1 3h-2Z" style="fill:#010d3e" transform="translate(809 290)"/><path d="M0 0h3v2l-5 2-1-2Z" style="fill:#1574c8" transform="translate(803 147)"/><path d="M0 0h3v3h-4Z" style="fill:#83d4f6" transform="translate(538 83)"/><path d="m0 0 4 1-1 3-3-2Z" style="fill:#bbd0e1" transform="translate(752 50)"/><path d="m0 0 2 4-3 1Z" style="fill:#08173f" transform="translate(665 573)"/><path d="m0 0 3 1 1 4-4-3Z" style="fill:#27609c" transform="translate(522 571)"/><path d="m0 0 4 1-1 2-4-2Z" style="fill:#e7e5ea" transform="translate(544 281)"/><path d="M0 0h1l1 7H0Z" style="fill:#fff" transform="translate(628 542)"/><path d="M0 0h1v8H0Z" style="fill:#fff" transform="translate(430 800)"/><path d="M0 0h1v7H0Z" style="fill:#fff" transform="translate(429 820)"/><path d="M0 0h5v1H0Z" style="fill:#fff" transform="translate(631 547)"/><path d="m0 0 2 3H0Z" style="fill:#fff" transform="translate(602 1047)"/><path d="m0 0 1 4Z" style="fill:#d4ffff" transform="translate(512 819)"/><path d="m0 0 1 4Z" style="fill:#fff" transform="translate(627 538)"/><path d="m0 0 4 1Z" style="fill:#fff" transform="translate(791 288)"/><path d="m0 0 2 1-1 2Z" style="fill:#fff" transform="translate(527 94)"/><path d="M0 0Z" style="fill:#fff" transform="translate(598 1035)"/><path d="M0 0Z" style="fill:#fff" transform="translate(618 948)"/><path d="M0 0Z" style="fill:#fff" transform="translate(513 795)"/><path d="m0 0 2 2H0Z" style="fill:#e9ffff" transform="translate(503 776)"/><path d="M0 0Z" style="fill:#fff" transform="translate(460 612)"/><path d="M0 0Z" style="fill:#fff" transform="translate(532 486)"/><path d="m0 0 2 1-2 1Z" style="fill:#fff" transform="translate(800 277)"/><path d="M0 0h2L1 2Z" style="fill:#fff" transform="translate(802 275)"/><path d="m0 0 3 1Z" style="fill:#fff" transform="translate(533 274)"/><path d="M0 0Z" style="fill:#fff" transform="translate(597 1026)"/><path d="M0 0Z" style="fill:#fff" transform="translate(599 1013)"/><path d="m0 0 2 1Z" style="fill:#fff" transform="translate(624 982)"/><path d="M0 0Z" style="fill:#fff" transform="translate(620 962)"/><path d="M0 0Z" style="fill:#fff" transform="translate(425 927)"/><path d="M0 0Z" style="fill:#fff" transform="translate(511 825)"/><path d="m0 0 2 1Z" style="fill:#fff" transform="translate(500 774)"/><path d="m0 0 2 1Z" style="fill:#fff" transform="translate(599 617)"/><path d="M0 0Z" style="fill:#fff" transform="translate(535 611)"/><path d="M0 0Z" style="fill:#fff" transform="translate(687 598)"/><path d="m0 0 2 1Z" style="fill:#fff" transform="translate(527 519)"/><path d="m0 0 2 1Z" style="fill:#fff" transform="translate(724 302)"/><path d="M0 0Z" style="fill:#fff" transform="translate(831 151)"/><path d="m0 0 2 1Z" style="fill:#fff" transform="translate(528 104)"/><path d="M0 0Z" style="fill:#fff" transform="translate(531 99)"/><path d="M0 0Z" style="fill:#fff" transform="translate(598 1017)"/><path d="M0 0Z" style="fill:#fff" transform="translate(600 1011)"/><path d="M0 0Z" style="fill:#fff" transform="translate(601 1009)"/><path d="M0 0Z" style="fill:#fff" transform="translate(602 1007)"/><path d="M0 0Z" style="fill:#fff" transform="translate(603 1005)"/><path d="M0 0Z" style="fill:#fff" transform="translate(493 1002)"/><path d="M0 0Z" style="fill:#fff" transform="translate(492 1001)"/><path d="M0 0Z" style="fill:#fff" transform="translate(411 998)"/><path d="M0 0Z" style="fill:#fff" transform="translate(614 990)"/><path d="M0 0Z" style="fill:#fff" transform="translate(616 988)"/><path d="M0 0Z" style="fill:#fff" transform="translate(691 986)"/><path d="M0 0Z" style="fill:#fff" transform="translate(619 986)"/><path d="M0 0Z" style="fill:#fff" transform="translate(620 985)"/><path d="M0 0Z" style="fill:#fff" transform="translate(621 984)"/><path d="M0 0Z" style="fill:#fff" transform="translate(623 983)"/><path d="M0 0Z" style="fill:#fff" transform="translate(684 980)"/><path d="M0 0Z" style="fill:#fff" transform="translate(626 978)"/><path d="M0 0Z" style="fill:#fff" transform="translate(481 975)"/><path d="M0 0Z" style="fill:#fff" transform="translate(616 935)"/><path d="M0 0Z" style="fill:#fff" transform="translate(425 924)"/><path d="M0 0Z" style="fill:#fff" transform="translate(426 907)"/><path d="M0 0Z" style="fill:#fff" transform="translate(427 880)"/><path d="M0 0Z" style="fill:#fff" transform="translate(427 858)"/><path d="M0 0Z" style="fill:#fff" transform="translate(510 830)"/><path d="M0 0Z" style="fill:#fff" transform="translate(704 829)"/><path d="M0 0Z" style="fill:#fff" transform="translate(705 820)"/><path d="M0 0Z" style="fill:#fff" transform="translate(429 817)"/><path d="M0 0Z" style="fill:#fff" transform="translate(704 811)"/><path d="M0 0Z" style="fill:#fff" transform="translate(509 783)"/><path d="M0 0Z" style="fill:#fff" transform="translate(622 782)"/><path d="M0 0Z" style="fill:#fff" transform="translate(695 781)"/><path d="M0 0Z" style="fill:#fff" transform="translate(508 781)"/><path d="M0 0Z" style="fill:#fff" transform="translate(507 780)"/><path d="M0 0Z" style="fill:#fff" transform="translate(506 779)"/><path d="M0 0Z" style="fill:#fff" transform="translate(505 778)"/><path d="M0 0Z" style="fill:#fff" transform="translate(693 777)"/><path d="M0 0Z" style="fill:#fff" transform="translate(502 775)"/><path d="M0 0Z" style="fill:#fff" transform="translate(502 772)"/><path d="M0 0Z" style="fill:#fff" transform="translate(503 771)"/><path d="M0 0Z" style="fill:#fff" transform="translate(447 762)"/><path d="M0 0Z" style="fill:#fff" transform="translate(447 760)"/><path d="M0 0Z" style="fill:#fff" transform="translate(613 714)"/><path d="M0 0Z" style="fill:#fff" transform="translate(450 708)"/><path d="M0 0Z" style="fill:#fff" transform="translate(451 696)"/><path d="M0 0Z" style="fill:#fff" transform="translate(538 614)"/><path d="M0 0Z" style="fill:#fff" transform="translate(536 613)"/><path d="M0 0Z" style="fill:#fff" transform="translate(689 601)"/><path d="M0 0Z" style="fill:#fff" transform="translate(466 593)"/><path d="M0 0Z" style="fill:#fff" transform="translate(467 592)"/><path d="M0 0Z" style="fill:#fff" transform="translate(630 544)"/><path d="M0 0Z" style="fill:#fff" transform="translate(530 519)"/><path d="M0 0Z" style="fill:#fff" transform="translate(531 509)"/><path d="M0 0Z" style="fill:#fff" transform="translate(532 506)"/><path d="M0 0Z" style="fill:#fff" transform="translate(532 501)"/><path d="M0 0Z" style="fill:#fff" transform="translate(530 496)"/><path d="M0 0Z" style="fill:#fff" transform="translate(531 491)"/><path d="M0 0Z" style="fill:#fff" transform="translate(531 489)"/><path d="M0 0Z" style="fill:#fff" transform="translate(531 483)"/><path d="M0 0Z" style="fill:#fff" transform="translate(728 301)"/><path d="M0 0Z" style="fill:#fff" transform="translate(797 286)"/><path d="M0 0Z" style="fill:#fff" transform="translate(798 285)"/><path d="M0 0Z" style="fill:#fff" transform="translate(799 283)"/><path d="M0 0Z" style="fill:#fff" transform="translate(798 280)"/><path d="M0 0Z" style="fill:#fff" transform="translate(804 278)"/><path d="M0 0Z" style="fill:#fff" transform="translate(801 274)"/><path d="M0 0Z" style="fill:#fff" transform="translate(800 273)"/><path d="M0 0Z" style="fill:#fff" transform="translate(799 271)"/><path d="M0 0Z" style="fill:#fff" transform="translate(798 270)"/><path d="M0 0Z" style="fill:#fff" transform="translate(841 175)"/><path d="M0 0Z" style="fill:#fff" transform="translate(838 169)"/><path d="M0 0Z" style="fill:#fff" transform="translate(837 166)"/><path d="M0 0Z" style="fill:#fff" transform="translate(835 161)"/><path d="M0 0Z" style="fill:#fff" transform="translate(833 156)"/><path d="M0 0Z" style="fill:#fff" transform="translate(771 144)"/><path d="M0 0Z" style="fill:#fff" transform="translate(773 142)"/><path d="M0 0Z" style="fill:#fff" transform="translate(774 141)"/><path d="M0 0Z" style="fill:#fff" transform="translate(772 139)"/><path d="M0 0Z" style="fill:#fff" transform="translate(532 103)"/><path d="M0 0Z" style="fill:#fff" transform="translate(529 101)"/><path d="M0 0Z" style="fill:#fff" transform="translate(529 97)"/><path d="M0 0Z" style="fill:#fff" transform="translate(526 93)"/></svg>